<svg width="200.5687072753906px" height="82.4px" xmlns="http://www.w3.org/2000/svg" viewBox="118.21564636230471 33.8 263.5687072753906 82.4" style="background: none;" preserveAspectRatio="xMidYMid"><filter id="editing-goldstamp"><feFlood flood-color="none" result="flood"></feFlood><feMorphology operator="dilate" radius="1" in="SourceGraphic" result="outline"></feMorphology><feComposite operator="in" in="flood" in2="outline" result="outline2"></feComposite><feGaussianBlur stdDeviation="4" in="SourceAlpha" result="blur"></feGaussianBlur><feSpecularLighting surfaceScale="2" specularConstant="0.7" specularExponent="10" lighting-color="#white" in="blur" result="specular"><fePointLight x="200" y="-1000" z="300"></fePointLight></feSpecularLighting><feComposite operator="in" in="specular" in2="SourceGraphic" result="specular2"></feComposite><feComposite in="SourceGraphic" in2="specular2" operator="arithmetic" k1="3" k2="2" k3="1" k4="0" result="specular3"></feComposite><feMerge><feMergeNode in="outline2"></feMergeNode><feMergeNode in="specular3"></feMergeNode></feMerge></filter><g filter="url(#editing-goldstamp)"><g transform="translate(160.22867703437805, 88.8850040435791)"><path d="M11.29 0L11.29 0L1.60 0L1.22-3.15L1.22-3.15Q1.71-3.80 3.31-4.41L3.31-4.41L3.31-21.77L3.31-21.77Q1.75-22.34 1.22-23.07L1.22-23.07L1.60-26.22L10.07-26.22L10.07-26.22Q16.19-26.22 19.78-22.80L19.78-22.80L19.78-22.80Q23.37-19.38 23.37-12.75L23.37-12.75L23.37-12.75Q23.37-6.12 20.12-3.06L20.12-3.06L20.12-3.06Q16.87 0 11.29 0ZM8.78-22.08L8.78-4.14L11.51-4.14L11.51-4.14Q14.36-4.14 16.02-5.87L16.02-5.87L16.02-5.87Q17.67-7.60 17.67-12.58L17.67-12.58L17.67-12.58Q17.67-22.08 10.49-22.08L10.49-22.08L8.78-22.08ZM26.18-16.19L26.18-16.19L26.18-16.19Q26.18-16.76 26.22-17.40L26.22-17.40L26.22-17.40Q29.75-19.30 33.82-19.30L33.82-19.30L33.82-19.30Q37.89-19.30 39.65-17.77L39.65-17.77L39.65-17.77Q41.42-16.23 41.42-12.65L41.42-12.65L41.42-4.56L41.42-4.56Q42.75-4.29 43.51-3.91L43.51-3.91L43.51-0.61L43.51-0.61Q41.57 0.30 37.96 0.30L37.96 0.30L37.96 0.30Q37.58-0.68 37.32-2.09L37.32-2.09L37.32-2.09Q35.68 0.30 31.39 0.30L31.39 0.30L31.39 0.30Q28.84 0.30 27.04-1.18L27.04-1.18L27.04-1.18Q25.23-2.66 25.23-5.21L25.23-5.21L25.23-5.21Q25.23-7.75 26.92-9.21L26.92-9.21L26.92-9.21Q28.61-10.68 31.96-10.68L31.96-10.68L36.10-10.68L36.10-12.50L36.10-12.50Q36.10-15.47 32.95-15.47L32.95-15.47L32.95-15.47Q31.77-15.47 31.01-15.24L31.01-15.24L31.01-15.24Q30.93-13.64 30.55-12.77L30.55-12.77L26.83-12.77L26.83-12.77Q26.18-14.10 26.18-16.19ZM33.02-3.57L33.02-3.57L33.02-3.57Q34.96-3.57 36.10-4.71L36.10-4.71L36.10-7.83L33.44-7.83L33.44-7.83Q30.70-7.83 30.70-5.74L30.70-5.74L30.70-5.74Q30.70-4.79 31.29-4.18L31.29-4.18L31.29-4.18Q31.88-3.57 33.02-3.57ZM52.48-15.88L52.48-15.88L52.48-15.88Q49.97-15.88 49.97-14.40L49.97-14.40L49.97-14.40Q49.97-13.00 52.59-12.31L52.59-12.31L55.59-11.51L55.59-11.51Q60.23-10.30 60.23-6.16L60.23-6.16L60.23-6.16Q60.23-3.31 58.23-1.50L58.23-1.50L58.23-1.50Q56.24 0.30 51.89 0.30L51.89 0.30L51.89 0.30Q47.54 0.30 45.11-0.91L45.11-0.91L45.11-0.91Q45.07-1.33 45.07-1.75L45.07-1.75L45.07-1.75Q45.07-3.84 45.90-5.51L45.90-5.51L49.06-5.51L49.06-5.51Q49.55-4.60 49.70-3.61L49.70-3.61L49.70-3.61Q50.46-3.38 51.87-3.38L51.87-3.38L51.87-3.38Q55.21-3.38 55.21-5.28L55.21-5.28L55.21-5.28Q55.21-5.89 54.76-6.29L54.76-6.29L54.76-6.29Q54.30-6.69 52.97-7.07L52.97-7.07L49.97-7.94L49.97-7.94Q47.65-8.59 46.36-9.86L46.36-9.86L46.36-9.86Q45.07-11.13 45.07-13.62L45.07-13.62L45.07-13.62Q45.07-16.11 47.08-17.71L47.08-17.71L47.08-17.71Q49.10-19.30 52.84-19.30L52.84-19.30L52.84-19.30Q56.58-19.30 59.17-18.20L59.17-18.20L59.17-18.20Q59.20-17.82 59.20-17.44L59.20-17.44L59.20-17.44Q59.20-15.47 58.37-13.79L58.37-13.79L55.25-13.79L55.25-13.79Q54.76-14.67 54.61-15.62L54.61-15.62L54.61-15.62Q53.54-15.88 52.48-15.88ZM61.56-24.05L61.94-26.98L61.94-26.98Q64.07-27.47 65.89-27.47L65.89-27.47L65.89-27.47Q67.72-27.47 68.97-27.36L68.97-27.36L68.97-17.86L68.97-17.86Q69.88-18.47 71.40-18.89L71.40-18.89L71.40-18.89Q72.92-19.30 74.10-19.30L74.10-19.30L74.10-19.30Q77.86-19.30 79.31-17.48L79.31-17.48L79.31-17.48Q80.75-15.66 80.75-11.93L80.75-11.93L80.75-4.22L80.75-4.22Q82.23-3.65 82.84-2.93L82.84-2.93L82.46 0L73.72 0L73.34-2.93L73.34-2.93Q73.87-3.65 75.43-4.22L75.43-4.22L75.43-11.74L75.43-11.74Q75.43-13.79 74.77-14.50L74.77-14.50L74.77-14.50Q74.10-15.20 72.35-15.20L72.35-15.20L72.35-15.20Q70.60-15.20 68.97-13.98L68.97-13.98L68.97-4.22L68.97-4.22Q70.45-3.65 71.06-2.93L71.06-2.93L70.68 0L61.94 0L61.56-2.93L61.56-2.93Q62.09-3.65 63.65-4.22L63.65-4.22L63.65-22.76L63.65-22.76Q62.32-23.22 61.56-24.05L61.56-24.05ZM82.99-24.05L83.37-26.98L83.37-26.98Q85.50-27.47 87.32-27.47L87.32-27.47L87.32-27.47Q89.15-27.47 90.40-27.36L90.40-27.36L90.40-17.86L90.40-17.86Q91.20-18.43 92.53-18.87L92.53-18.87L92.53-18.87Q93.86-19.30 95.08-19.30L95.08-19.30L95.08-19.30Q99.22-19.30 100.89-17.18L100.89-17.18L100.89-17.18Q102.56-15.05 102.56-9.92L102.56-9.92L102.56-9.92Q102.56-7.07 101.78-5.00L101.78-5.00L101.78-5.00Q101.00-2.93 99.67-1.82L99.67-1.82L99.67-1.82Q97.17 0.30 93.75 0.30L93.75 0.30L93.75 0.30Q91.16 0.30 88.65-0.99L88.65-0.99L88.65-0.99Q87.93 0 86.98 0L86.98 0L85.08 0L85.08-22.76L85.08-22.76Q83.75-23.22 82.99-24.05L82.99-24.05ZM93.44-3.57L93.44-3.57L93.44-3.57Q97.09-3.57 97.09-9.69L97.09-9.69L97.09-9.69Q97.09-12.92 96.46-14.08L96.46-14.08L96.46-14.08Q95.84-15.24 94.28-15.24L94.28-15.24L94.28-15.24Q91.92-15.24 90.40-13.98L90.40-13.98L90.40-4.22L90.40-4.22Q92.04-3.57 93.44-3.57ZM113.37 0.30L113.37 0.30L113.37 0.30Q108.87 0.30 106.70-2.09L106.70-2.09L106.70-2.09Q104.54-4.48 104.54-9.33L104.54-9.33L104.54-9.33Q104.54-14.17 106.95-16.74L106.95-16.74L106.95-16.74Q109.36-19.30 113.89-19.30L113.89-19.30L113.89-19.30Q118.41-19.30 120.59-17.02L120.59-17.02L120.59-17.02Q122.78-14.74 122.78-9.90L122.78-9.90L122.78-9.90Q122.78-5.05 120.33-2.38L120.33-2.38L120.33-2.38Q117.88 0.30 113.37 0.30ZM110.01-9.65L110.01-9.65L110.01-9.65Q110.01-3.57 113.66-3.57L113.66-3.57L113.66-3.57Q115.52-3.57 116.41-4.96L116.41-4.96L116.41-4.96Q117.31-6.35 117.31-9.50L117.31-9.50L117.31-9.50Q117.31-15.43 113.58-15.43L113.58-15.43L113.58-15.43Q111.76-15.43 110.88-14.12L110.88-14.12L110.88-14.12Q110.01-12.81 110.01-9.65ZM125.48-16.19L125.48-16.19L125.48-16.19Q125.48-16.76 125.51-17.40L125.51-17.40L125.51-17.40Q129.05-19.30 133.11-19.30L133.11-19.30L133.11-19.30Q137.18-19.30 138.95-17.77L138.95-17.77L138.95-17.77Q140.71-16.23 140.71-12.65L140.71-12.65L140.71-4.56L140.71-4.56Q142.04-4.29 142.80-3.91L142.80-3.91L142.80-0.61L142.80-0.61Q140.87 0.30 137.26 0.30L137.26 0.30L137.26 0.30Q136.88-0.68 136.61-2.09L136.61-2.09L136.61-2.09Q134.98 0.30 130.68 0.30L130.68 0.30L130.68 0.30Q128.14 0.30 126.33-1.18L126.33-1.18L126.33-1.18Q124.53-2.66 124.53-5.21L124.53-5.21L124.53-5.21Q124.53-7.75 126.22-9.21L126.22-9.21L126.22-9.21Q127.91-10.68 131.25-10.68L131.25-10.68L135.39-10.68L135.39-12.50L135.39-12.50Q135.39-15.47 132.24-15.47L132.24-15.47L132.24-15.47Q131.06-15.47 130.30-15.24L130.30-15.24L130.30-15.24Q130.23-13.64 129.85-12.77L129.85-12.77L126.12-12.77L126.12-12.77Q125.48-14.10 125.48-16.19ZM132.32-3.57L132.32-3.57L132.32-3.57Q134.25-3.57 135.39-4.71L135.39-4.71L135.39-7.83L132.73-7.83L132.73-7.83Q130.00-7.83 130.00-5.74L130.00-5.74L130.00-5.74Q130.00-4.79 130.59-4.18L130.59-4.18L130.59-4.18Q131.18-3.57 132.32-3.57ZM155.57-14.33L155.57-14.33L155.57-14.33Q152.68-14.33 151.58-13.22L151.58-13.22L151.58-4.52L151.58-4.52Q154.66-3.95 155.80-2.93L155.80-2.93L155.42 0L144.55 0L144.17-2.93L144.17-2.93Q144.70-3.65 146.26-4.22L146.26-4.22L146.26-14.78L146.26-14.78Q144.93-15.24 144.17-16.07L144.17-16.07L144.55-19L144.55-19Q146.64-19.46 148.31-19.46L148.31-19.46L148.31-19.46Q149.99-19.46 151.09-19.38L151.09-19.38L151.09-16.99L151.09-16.99Q151.96-18.01 153.33-18.68L153.33-18.68L153.33-18.68Q154.70-19.34 155.82-19.34L155.82-19.34L155.82-19.34Q156.94-19.34 157.36-19.15L157.36-19.15L157.24-14.21L157.24-14.21Q156.48-14.33 155.57-14.33ZM168.42-24.05L168.80-26.98L168.80-26.98Q170.96-27.47 172.94-27.47L172.94-27.47L172.94-27.47Q174.91-27.47 176.32-27.36L176.32-27.36L176.32-4.56L176.32-4.56Q177.46-4.37 178.41-3.91L178.41-3.91L178.41-0.91L178.41-0.91Q176.13 0.30 172.63 0.30L172.63 0.30L172.63 0.30Q172.25 0.11 171.89-0.38L171.89-0.38L171.89-0.38Q171.53-0.87 171.49-1.33L171.49-1.33L171.49-1.33Q170.66-0.65 169.33-0.17L169.33-0.17L169.33-0.17Q168.00 0.30 166.71 0.30L166.71 0.30L166.71 0.30Q162.60 0.30 160.76-1.92L160.76-1.92L160.76-1.92Q158.92-4.14 158.92-9.20L158.92-9.20L158.92-9.20Q158.92-14.93 161.73-17.25L161.73-17.25L161.73-17.25Q164.20-19.30 167.81-19.30L167.81-19.30L167.81-19.30Q169.40-19.30 171-18.92L171-18.92L171-22.69L171-22.69Q169.25-23.18 168.42-24.05L168.42-24.05ZM167.50-3.57L167.50-3.57L167.50-3.57Q169.67-3.57 171-4.86L171-4.86L171-15.05L171-15.05Q169.44-15.43 167.69-15.43L167.69-15.43L167.69-15.43Q165.95-15.43 165.17-13.89L165.17-13.89L165.17-13.89Q164.39-12.35 164.39-9.29L164.39-9.29L164.39-9.29Q164.39-6.23 165.15-4.90L165.15-4.90L165.15-4.90Q165.91-3.57 167.50-3.57Z" fill="#ffffff"></path></g></g><style>text {
  font-size: 64px;
  font-family: Arial Black;
  dominant-baseline: central;
  text-anchor: middle;
}</style></svg>